<svg xmlns="http://www.w3.org/2000/svg" viewBox="0 0 512 512">
  <rect width="512" height="512" rx="64" fill="#0a0a0f"/>
  <!-- Subtle grid accent -->
  <g stroke="#00ff88" stroke-width="1" opacity="0.08">
    <line x1="64" y1="0" x2="64" y2="512"/>
    <line x1="128" y1="0" x2="128" y2="512"/>
    <line x1="192" y1="0" x2="192" y2="512"/>
    <line x1="256" y1="0" x2="256" y2="512"/>
    <line x1="320" y1="0" x2="320" y2="512"/>
    <line x1="384" y1="0" x2="384" y2="512"/>
    <line x1="448" y1="0" x2="448" y2="512"/>
    <line x1="0" y1="64" x2="512" y2="64"/>
    <line x1="0" y1="128" x2="512" y2="128"/>
    <line x1="0" y1="192" x2="512" y2="192"/>
    <line x1="0" y1="256" x2="512" y2="256"/>
    <line x1="0" y1="320" x2="512" y2="320"/>
    <line x1="0" y1="384" x2="512" y2="384"/>
    <line x1="0" y1="448" x2="512" y2="448"/>
  </g>
  <!-- Terminal prompt chevron -->
  <path d="M 152 168 L 264 256 L 152 344"
        stroke="#00ff88" stroke-width="36"
        stroke-linecap="round" stroke-linejoin="round" fill="none"/>
  <!-- Blinking-cursor block next to the chevron -->
  <rect x="296" y="232" width="64" height="48" fill="#00ff88"/>
</svg>
